<svg xmlns="http://www.w3.org/2000/svg" width="24" height="24" fill="none" stroke="currentColor" stroke-width="2" stroke-linecap="round" stroke-linejoin="round" class="lucide lucide-car" viewBox="0 0 24 24">
  <path d="M16 3H8a2 2 0 0 0-2 2v3h12V5a2 2 0 0 0-2-2z"/>
  <path d="M3 10v6a2 2 0 0 0 2 2h1a2 2 0 0 0 2-2v-1h6v1a2 2 0 0 0 2 2h1a2 2 0 0 0 2-2v-6"/>
  <path d="M3 10l1.5-4.5A2 2 0 0 1 6.4 4h11.2a2 2 0 0 1 1.9 1.5L21 10"/>
  <circle cx="7.5" cy="16.5" r="2"/>
  <circle cx="16.5" cy="16.5" r="2"/>
</svg>
